REM DIRINDEX 1\2\6,1\2\7,1\2\8,1\2\9,1\3\10,1\3\11,1\4\12,1\4\13,1\4\14,1\5\15,1\5\16,1\5\17
REM DIRNAME folder01,folder02,folder03,folder04,folder05,folder06,folder07,folder08,folder09,folder10,folder11,folder12,folder13,folder14,folder15,folder16,folder17
TITLE ""
FILE "1900_3_098 sec17_1637_1655.mp3" MP3
  TRACK 01 AUDIO
    TITLE "0:"
    INDEX 01 00:00:00
  TRACK 02 AUDIO
    TITLE "17:cjc020_9258"
    INDEX 01 00:00:13
  TRACK 03 AUDIO
    TITLE "0:"
    INDEX 01 00:01:44
  TRACK 04 AUDIO
    TITLE "16:cjc020_9259"
    INDEX 01 00:01:50
  TRACK 05 AUDIO
    TITLE "0:"
    INDEX 01 00:03:17
  TRACK 06 AUDIO
    TITLE "17:cjc020_9260"
    INDEX 01 00:04:01
  TRACK 07 AUDIO
    TITLE "0:"
    INDEX 01 00:05:01
  TRACK 08 AUDIO
    TITLE "16:cjc020_9261"
    INDEX 01 00:05:12
  TRACK 09 AUDIO
    TITLE "0:"
    INDEX 01 00:06:31
  TRACK 10 AUDIO
    TITLE "17:cjc020_9262"
    INDEX 01 00:07:15
  TRACK 11 AUDIO
    TITLE "0:"
    INDEX 01 00:08:30
  TRACK 12 AUDIO
    TITLE "16:cjc020_9263"
    INDEX 01 00:08:38
  TRACK 13 AUDIO
    TITLE "0:"
    INDEX 01 00:09:59
  TRACK 14 AUDIO
    TITLE "17:cjc020_9264"
    INDEX 01 00:10:41
  TRACK 15 AUDIO
    TITLE "0:"
    INDEX 01 00:11:50
  TRACK 16 AUDIO
    TITLE "16:cjc020_9265"
    INDEX 01 00:11:54
  TRACK 17 AUDIO
    TITLE "0:"
    INDEX 01 00:12:56
  TRACK 18 AUDIO
    TITLE "17:cjc020_9266"
    INDEX 01 00:13:43
  TRACK 19 AUDIO
    TITLE "0:"
    INDEX 01 00:14:41
  TRACK 20 AUDIO
    TITLE "16:cjc020_9267"
    INDEX 01 00:14:47
  TRACK 21 AUDIO
    TITLE "0:"
    INDEX 01 00:15:50
  TRACK 22 AUDIO
    TITLE "17:cjc020_9268"
    INDEX 01 00:16:36
  TRACK 23 AUDIO
    TITLE "0:"
    INDEX 01 00:17:35
  TRACK 24 AUDIO
    TITLE "16:cjc020_9269"
    INDEX 01 00:17:39
  TRACK 25 AUDIO
    TITLE "0:"
    INDEX 01 00:18:39
  TRACK 26 AUDIO
    TITLE "17:cjc020_9270"
    INDEX 01 00:19:26
  TRACK 27 AUDIO
    TITLE "0:"
    INDEX 01 00:20:22
  TRACK 28 AUDIO
    TITLE "16:cjc020_9271"
    INDEX 01 00:20:30
  TRACK 29 AUDIO
    TITLE "0:"
    INDEX 01 00:21:33
  TRACK 30 AUDIO
    TITLE "17:cjc020_9272"
    INDEX 01 00:22:11
  TRACK 31 AUDIO
    TITLE "0:"
    INDEX 01 00:23:20
  TRACK 32 AUDIO
    TITLE "16:cjc020_9273"
    INDEX 01 00:23:28
  TRACK 33 AUDIO
    TITLE "0:"
    INDEX 01 00:24:18
  TRACK 34 AUDIO
    TITLE "17:cjc020_9274"
    INDEX 01 00:25:03
  TRACK 35 AUDIO
    TITLE "0:"
    INDEX 01 00:26:40
  TRACK 36 AUDIO
    TITLE "16:cjc020_9275"
    INDEX 01 00:26:42
  TRACK 37 AUDIO
    TITLE "0:"
    INDEX 01 00:27:43
  TRACK 38 AUDIO
    TITLE "17:cjc020_9276"
    INDEX 01 00:28:29
  TRACK 39 AUDIO
    TITLE "0:"
    INDEX 01 00:29:40
  TRACK 40 AUDIO
    TITLE "16:cjc020_9277"
    INDEX 01 00:29:42
  TRACK 41 AUDIO
    TITLE "0:"
    INDEX 01 00:30:32
  TRACK 42 AUDIO
    TITLE "17:cjc020_9278"
    INDEX 01 00:31:18
  TRACK 43 AUDIO
    TITLE "0:"
    INDEX 01 00:32:45
  TRACK 44 AUDIO
    TITLE "16:cjc020_9279"
    INDEX 01 00:32:52
  TRACK 45 AUDIO
    TITLE "0:"
    INDEX 01 00:33:56
  TRACK 46 AUDIO
    TITLE "17:cjc020_9280"
    INDEX 01 00:34:42
  TRACK 47 AUDIO
    TITLE "0:"
    INDEX 01 00:35:49
  TRACK 48 AUDIO
    TITLE "16:cjc020_9281"
    INDEX 01 00:35:57
  TRACK 49 AUDIO
    TITLE "0:"
    INDEX 01 00:36:62
  TRACK 50 AUDIO
    TITLE "17:cjc020_9282"
    INDEX 01 00:37:46
  TRACK 51 AUDIO
    TITLE "0:"
    INDEX 01 00:38:43
  TRACK 52 AUDIO
    TITLE "16:cjc020_9283"
    INDEX 01 00:38:47
  TRACK 53 AUDIO
    TITLE "0:"
    INDEX 01 00:39:39
  TRACK 54 AUDIO
    TITLE "17:cjc020_9284"
    INDEX 01 00:40:23
  TRACK 55 AUDIO
    TITLE "0:"
    INDEX 01 00:41:42
  TRACK 56 AUDIO
    TITLE "16:cjc020_9285"
    INDEX 01 00:41:47
  TRACK 57 AUDIO
    TITLE "0:"
    INDEX 01 00:42:45
  TRACK 58 AUDIO
    TITLE "17:cjc020_9286"
    INDEX 01 00:43:33
  TRACK 59 AUDIO
    TITLE "0:"
    INDEX 01 00:44:36
  TRACK 60 AUDIO
    TITLE "16:cjc020_9287"
    INDEX 01 00:44:44
  TRACK 61 AUDIO
    TITLE "0:"
    INDEX 01 00:45:41
  TRACK 62 AUDIO
    TITLE "17:cjc020_9288"
    INDEX 01 00:46:23
  TRACK 63 AUDIO
    TITLE "0:"
    INDEX 01 00:47:28
  TRACK 64 AUDIO
    TITLE "16:cjc020_9289"
    INDEX 01 00:47:32
  TRACK 65 AUDIO
    TITLE "0:"
    INDEX 01 00:48:44
  TRACK 66 AUDIO
    TITLE "17:cjc020_9290"
    INDEX 01 00:49:23
  TRACK 67 AUDIO
    TITLE "0:"
    INDEX 01 00:50:27
  TRACK 68 AUDIO
    TITLE "16:cjc020_9291"
    INDEX 01 00:50:35
  TRACK 69 AUDIO
    TITLE "0:"
    INDEX 01 00:51:42
  TRACK 70 AUDIO
    TITLE "17:cjc020_9292"
    INDEX 01 00:52:26
  TRACK 71 AUDIO
    TITLE "0:"
    INDEX 01 00:53:39
  TRACK 72 AUDIO
    TITLE "16:cjc020_9293"
    INDEX 01 00:53:45
  TRACK 73 AUDIO
    TITLE "0:"
    INDEX 01 00:54:56
  TRACK 74 AUDIO
    TITLE "17:cjc020_9294"
    INDEX 01 00:55:42
  TRACK 75 AUDIO
    TITLE "0:"
    INDEX 01 00:56:57
  TRACK 76 AUDIO
    TITLE "16:cjc020_9295"
    INDEX 01 00:56:67
  TRACK 77 AUDIO
    TITLE "0:"
    INDEX 01 00:57:62
